<?xml version="1.0" standalone="no"?>
<!-- Generator: Adobe Fireworks 10, Export SVG Extension by Aaron Beall (http://fireworks.abeall.com) . Version: 0.6.1  -->
<!DOCTYPE svg PUBLIC "-//W3C//DTD SVG 1.1//EN" "http://www.w3.org/Graphics/SVG/1.1/DTD/svg11.dtd">
<svg id="logo.fw-Page%201" viewBox="0 0 53 61" style="background-color:#ffffff00" version="1.1"
	xmlns="http://www.w3.org/2000/svg" xmlns:xlink="http://www.w3.org/1999/xlink" xml:space="preserve"
	x="0px" y="0px" width="53px" height="61px"
>
	<g>
		<path d="M 51.2575 20.4374 C 51.2575 20.4374 52.6383 13.8306 50.1787 10.9336 C 47.4867 7.7678 42.0149 7.686 42.0149 7.686 C 42.0149 7.686 38.8431 3.3467 34.812 2.6344 C 29.7725 1.7431 24.3682 2.7543 24.3682 2.7543 C 24.3682 2.7543 21.2753 -0.0162 14.525 1.1909 C 9.4686 2.0945 9.0021 7.4464 9.0021 7.4464 C 9.0021 7.4464 4.389 7.2886 2.5204 9.8526 C 0.4944 12.6323 2.6407 18.5135 2.6407 18.5135 C 2.6407 18.5135 -0.1112 22.3923 0.7198 25.8517 C 1.4413 28.856 5.7614 28.9791 5.7614 28.9791 C 5.7614 28.9791 6.5892 33.7231 10.3234 33.9114 C 13.3695 34.0639 16.686 32.3471 16.686 32.3471 C 16.686 32.3471 20.496 34.0903 24.3687 34.0316 C 28.3579 33.9706 32.4116 32.1077 32.4116 32.1077 C 32.4116 32.1077 35.3651 34.9067 39.015 35.7161 C 42.6894 36.5314 45.8572 32.3494 45.8572 32.3494 C 45.8572 32.3494 50.4552 33.2468 51.979 29.7023 C 53.6305 25.859 51.2575 20.4374 51.2575 20.4374 ZM 35.4115 35.8352 C 35.4115 35.8352 34.3142 35.4264 33.3713 34.8727 C 32.5882 34.4117 31.9306 33.7899 31.9306 33.7899 C 31.9306 33.7899 31.8075 34.7085 31.6071 35.3085 C 31.4066 35.9085 31.0122 36.535 31.0122 36.535 C 31.0122 36.535 30.9413 36.1267 30.849 35.6763 C 30.7328 35.112 30.5806 34.4815 30.4905 34.5108 C 29.7835 34.7483 29.0504 34.7519 29.0504 34.7519 C 29.0504 34.7519 29.5372 36.2464 29.2898 37.3972 C 28.9052 39.1744 27.9676 41.9681 27.9676 41.9681 C 27.9676 41.9681 26.9997 39.7685 26.6477 38.3597 C 26.341 37.135 26.4072 35.593 26.4072 35.593 C 26.4072 35.593 24.8463 35.5449 23.4067 35.3525 C 22.1595 35.1871 21.0055 34.8703 21.0055 34.8703 L 21.6056 37.1573 C 21.6056 37.1573 20.5253 36.7015 19.6853 35.9549 C 18.9072 35.2616 18.7248 34.2697 18.7248 34.2697 L 17.2843 33.9084 C 17.2843 33.9084 17.9722 35.7103 19.805 37.6376 C 27.418 44.3934 26.0052 45.1817 25.2616 51.826 C 25.0011 54.7265 24.3467 57.4029 23.8404 58.7202 C 23.4651 59.6974 21.5597 60.406 21.5597 60.406 C 21.5597 60.406 22.1487 60.8863 24.5616 60.8863 C 25.7025 60.8863 28.9058 60.3086 30.2245 60.203 C 30.9698 60.142 32.0689 60.4312 32.8648 60.4423 C 33.8268 60.4564 34.4263 60.203 34.4263 60.203 C 34.4263 60.203 31.4984 59.3666 31.0651 58.3977 C 30.7316 57.6522 30.4644 56.7119 30.4644 56.7119 C 30.4644 56.7119 29.6116 53.3651 30.318 45.7073 C 31.1731 39.2882 35.4115 35.8352 35.4115 35.8352 Z" fill="#6a732c"/>
	</g>
</svg>